<svg 
    xmlns="http://www.w3.org/2000/svg" 
    version="1.1" 
    xmlns:xlink="http://www.w3.org/1999/xlink" 
    xmlns:svgjs="http://svgjs.dev/svgjs" 
    width="200" 
    height="150" 
    viewBox="0 0 200 150"
>
<rect 
    width="200" 
    height="150" 
    fill="#046380"
></rect>
<g transform="matrix(0.75,0,0,0.75,249.090909090909,282.7536437246963)">
<svg viewBox="0 0 396 247" data-background-color="#046380" preserveAspectRatio="xMidYMid meet" height="1247" width="2000" xmlns="http://www.w3.org/2000/svg" xmlns:xlink="http://www.w3.org/1999/xlink">
<g id="tight-bounds" transform="matrix(1,0,0,1,0.2400000000000091,-0.09999999999999432)">
<svg viewBox="0 0 395.52 247.2" height="247.2" width="395.52"><g><svg></svg></g><g><svg viewBox="0 0 395.52 247.2" height="247.2" width="395.52"><g transform="matrix(1,0,0,1,75.54432,92.17387389836816)"><svg viewBox="0 0 244.43135999999998 62.85225220326369" height="62.85225220326369" width="244.43135999999998"><g><svg viewBox="0 0 368.0038647044714 94.62726761484765" height="62.85225220326369" width="244.43135999999998"><g transform="matrix(1,0,0,1,123.57250470447147,13.078008765872582)"><svg viewBox="0 0 244.43135999999998 68.47125008310249" height="68.47125008310249" width="244.43135999999998"><g id="textblocktransform"><svg viewBox="0 0 244.43135999999998 68.47125008310249" height="68.47125008310249" width="244.43135999999998" id="textblock"><g><svg viewBox="0 0 244.43135999999998 68.47125008310249" height="68.47125008310249" width="244.43135999999998"><g transform="matrix(1,0,0,1,0,0)"><svg width="244.43135999999998" viewBox="4 -39.95000076293945 144.38999938964844 40.45000076293945" height="68.47125008310249" data-palette-color="#ffffff"><path d="M24.75-8.4L24.75-14.75Q24.75-15.9 23.9-16.98 23.05-18.05 20.9-18.2L20.9-18.2Q19.5-16.5 17.5-16.5L17.5-16.5Q15.8-16.5 14.6-17.7 13.4-18.9 13.4-20.65L13.4-20.65Q13.4-22.4 14.6-23.6 15.8-24.8 17.5-24.8L17.5-24.8Q18.4-24.8 19.28-24.3 20.15-23.8 20.85-23.1L20.85-23.1Q21.95-23.15 22.55-23.45 23.15-23.75 23.43-24.18 23.7-24.6 23.75-25.15 23.8-25.7 23.8-26.25L23.8-26.25 23.8-31.3Q23.8-32.55 23.03-33.6 22.25-34.65 20.4-34.65L20.4-34.65 9.95-34.65 9.9-1.65Q9.9-0.65 8.97-0.13 8.05 0.4 6.95 0.4L6.95 0.4Q4 0.4 4-2L4-2 4-36.7Q4-38.5 4.93-39.1 5.85-39.7 7.15-39.7L7.15-39.7 21.65-39.7Q22.95-39.7 24.43-39.2 25.9-38.7 27.2-37.85L27.2-37.85 27.15-37.85Q28.45-36.9 29.08-35.35 29.7-33.8 29.7-31.75L29.7-31.75 29.7-26.1Q29.7-24.1 28.85-22.83 28-21.55 27.05-20.8L27.05-20.8Q27.7-20.4 28.3-19.98 28.9-19.55 29.3-19.05L29.3-19.05Q29.95-18.35 30.33-17.4 30.7-16.45 30.7-15.15L30.7-15.15 30.7-8Q30.7-3.9 27.5-1.95L27.5-1.95Q25.9-0.95 24.48-0.45 23.05 0.05 21.65 0.05L21.65 0.05 14.25 0.05Q13.4 0.05 12.93-0.65 12.45-1.35 12.45-2.5L12.45-2.5Q12.45-5 14.55-5L14.55-5 21.4-5Q23.25-5 24-6.05 24.75-7.1 24.75-8.4L24.75-8.4ZM61.8-0.6L52.35-16.45 48.5-16.45Q47.65-16.45 47.17-17.13 46.7-17.8 46.7-18.95L46.7-18.95Q46.7-21.5 48.8-21.5L48.8-21.5 54.65-21.5Q56.5-21.5 57.25-22.55 58-23.6 58-24.85L58-24.85 58-31.3Q58-32.55 57.25-33.6 56.5-34.65 54.65-34.65L54.65-34.65 44.1-34.65 44.1-2.05Q44.1 0.35 41.15 0.35L41.15 0.35Q38.2 0.35 38.2-2.05L38.2-2.05 38.2-36.7Q38.2-38.5 39.12-39.1 40.05-39.7 41.35-39.7L41.35-39.7 55.9-39.7Q57.2-39.7 58.6-39.15 60-38.6 61.3-37.75L61.3-37.75 61.25-37.75Q62.55-36.8 63.25-35.27 63.95-33.75 63.95-31.75L63.95-31.75 63.95-24.45Q63.95-20.4 61.25-18.4L61.25-18.4Q60.7-18 60.07-17.65 59.45-17.3 58.8-16.95L58.8-16.95 66.8-3.75Q66.95-3.5 67.1-3.1 67.25-2.7 67.25-2.45L67.25-2.45Q67.25-1.25 65.55-0.15L65.55-0.15 65.55-0.2Q64.4 0.5 63.6 0.5L63.6 0.5Q62.45 0.5 61.75-0.65L61.75-0.65 61.8-0.6ZM78.05-37.55L78.05-2.1Q78.05 0.3 75.05 0.3L75.05 0.3Q72.1 0.3 72.1-2.1L72.1-2.1 72.1-37.55Q72.1-39.95 75.05-39.95L75.05-39.95Q78.05-39.95 78.05-37.55L78.05-37.55ZM110.19-1.2L99.19-34.8 88.24-1.2 88.24-1.25Q87.94-0.5 87.42-0.03 86.89 0.45 86.14 0.45L86.14 0.45Q85.74 0.45 85.37 0.38 84.99 0.3 84.59 0.2L84.59 0.2 84.64 0.2Q81.79-0.7 82.54-3L82.54-3 93.94-37.65Q94.19-38.45 94.82-39 95.44-39.55 96.29-39.65L96.29-39.65Q97.14-39.8 97.94-39.88 98.74-39.95 99.19-39.95L99.19-39.95Q99.64-39.95 100.44-39.88 101.24-39.8 102.09-39.7L102.09-39.7Q102.79-39.6 103.47-38.95 104.14-38.3 104.49-37.65L104.49-37.65Q107.29-29.05 110.17-20.33 113.04-11.6 115.84-3L115.84-3Q116.54-0.7 113.74 0.2L113.74 0.2Q113.34 0.3 113.02 0.38 112.69 0.45 112.29 0.45L112.29 0.45Q111.59 0.45 111.02-0.03 110.44-0.5 110.19-1.25L110.19-1.25 110.19-1.2ZM102.94-12L102.94-12Q102.94-10.4 101.82-9.28 100.69-8.15 99.09-8.15L99.09-8.15Q97.49-8.15 96.39-9.28 95.29-10.4 95.29-12L95.29-12Q95.29-13.6 96.39-14.73 97.49-15.85 99.09-15.85L99.09-15.85Q100.69-15.85 101.82-14.73 102.94-13.6 102.94-12ZM142.49-10.5L142.49-37.55Q142.49-39.95 145.44-39.95L145.44-39.95Q148.39-39.95 148.39-37.55L148.39-37.55 148.39-3.05Q148.39-1.3 146.54-0.5L146.54-0.5 146.59-0.5Q145.79-0.15 144.89 0.05 143.99 0.25 143.14 0.25L143.14 0.25Q142.49 0.25 141.79 0.13 141.09 0 140.47-0.28 139.84-0.55 139.32-1.03 138.79-1.5 138.49-2.2L138.49-2.2 127.64-29.25 126.29-29.1 126.29-2.1Q126.29 0.3 123.29 0.3L123.29 0.3Q120.34 0.3 120.34-2.1L120.34-2.1 120.34-36.55Q120.34-38.6 122.14-39.3L122.14-39.3Q123.79-39.95 125.64-39.95L125.64-39.95Q126.94-39.95 128.27-39.43 129.59-38.9 130.29-37.45L130.29-37.45 141.09-10.35 142.49-10.5Z" opacity="1" transform="matrix(1,0,0,1,0,0)" fill="#ffffff" class="wordmark-text-0" data-fill-palette-color="primary" id="text-0"></path></svg></g></svg></g></svg></g></svg></g><g><svg viewBox="0 0 107.40808586985297 94.62726761484765" height="94.62726761484765" width="107.40808586985297"><g><svg xmlns="http://www.w3.org/2000/svg" xmlns:xlink="http://www.w3.org/1999/xlink" version="1.1" x="0" y="0" viewBox="6.300000190734863 11.5 87.39999389648438 77" style="enable-background:new 0 0 100 100;" xml:space="preserve" height="94.62726761484765" width="107.40808586985297" class="icon-icon-0" data-fill-palette-color="accent" id="icon-0"><path d="M72.3 12.3L72.3 12.3 72.3 12.3l-0.4-0.8H28.2L6.3 50l21.8 38.5h43.7L93.7 50 72.3 12.3zM33.3 25.3L9.9 47.7l18.6-32.8L33.3 25.3zM70.7 14.8l6.4 35.7L36.9 25.8 70.7 14.8zM35.5 27.3l41 25.2-41 23.3V27.3zM77 54.5l-7.2 30.8-32.6-8.1L77 54.5zM33.5 75L9.9 50.5l23.6-22.7V75zM33.2 77.6l-4.6 7.7L11.5 55.1 33.2 77.6zM35 78.6l31.4 7.9H30.2L35 78.6zM79.3 53.3l11.6-2.5L72.1 84 79.3 53.3zM90.7 48.9l-11.4 2.5-5.9-33.1L90.7 48.9zM35 24.3l-5-10.8h38.2L35 24.3z" fill="#ffffff" data-fill-palette-color="accent"></path></svg></g></svg></g></svg></g></svg></g><path d="M202.474 86.174L202.474 24.832 4.938 24.832 4.938 222.368 202.474 222.368 202.474 161.026 198.373 161.026 198.373 218.266 9.04 218.266 9.04 28.934 198.373 28.934 198.373 86.174Z" fill="#ffffff" stroke="transparent" data-fill-palette-color="primary"></path></svg></g><defs></defs></svg><rect width="395.52" height="247.2" fill="none" stroke="none" visibility="hidden"></rect></g></svg></g></svg>