<svg xmlns="http://www.w3.org/2000/svg" version="1.1" xmlns:xlink="http://www.w3.org/1999/xlink" xmlns:svgjs="http://svgjs.dev/svgjs" width="1000" height="1000" viewBox="0 0 1000 1000"><rect width="1000" height="1000" fill="#ffffff"></rect><g transform="matrix(0.7,0,0,0.7,149.57575757575756,282.1265587044535)"><svg viewBox="0 0 396 247" data-background-color="#ffffff" preserveAspectRatio="xMidYMid meet" height="623" width="1000" xmlns="http://www.w3.org/2000/svg" xmlns:xlink="http://www.w3.org/1999/xlink"><g id="tight-bounds" transform="matrix(1,0,0,1,0.2400000000000091,-0.09999999999999432)"><svg viewBox="0 0 395.52 247.2" height="247.2" width="395.52"><g><svg></svg></g><g><svg viewBox="0 0 395.52 247.2" height="247.2" width="395.52"><g transform="matrix(1,0,0,1,75.54432,97.26665579045837)"><svg viewBox="0 0 244.43135999999998 52.66668841908325" height="52.66668841908325" width="244.43135999999998"><g><svg viewBox="0 0 244.43135999999998 52.66668841908325" height="52.66668841908325" width="244.43135999999998"><g><svg viewBox="0 0 244.43135999999998 52.66668841908325" height="52.66668841908325" width="244.43135999999998"><g><svg viewBox="0 0 244.43135999999998 52.66668841908325" height="52.66668841908325" width="244.43135999999998"><g id="textblocktransform"><svg viewBox="0 0 244.43135999999998 52.66668841908325" height="52.66668841908325" width="244.43135999999998" id="textblock"><g><svg viewBox="0 0 244.43135999999998 52.66668841908325" height="52.66668841908325" width="244.43135999999998"><g transform="matrix(1,0,0,1,0,0)"><svg width="244.43135999999998" viewBox="1.5 -34.1 160.34 34.550000000000004" height="52.66668841908325" data-palette-color="#6b7280"><path d="M1.5-33.95L1.5-33.95Q2.45-33.9 4.05-33.85 5.65-33.8 6.9-33.8L6.9-33.8Q8.25-33.8 10.38-33.83 12.5-33.85 14.7-33.88 16.9-33.9 18.35-33.9L18.35-33.9Q23.75-33.9 26.8-33.02 29.85-32.15 31.1-30.43 32.35-28.7 32.35-26.15L32.35-26.15Q32.35-23.25 30.3-21.15 28.25-19.05 24.4-18.5L24.4-18.5Q27.95-18.3 30.1-17.18 32.25-16.05 33.2-14.15 34.15-12.25 34.15-9.7L34.15-9.7Q34.15-6.8 32.6-4.63 31.05-2.45 27.6-1.23 24.15 0 18.35 0L18.35 0Q16.15 0 13.95 0 11.75 0 9.63 0.03 7.5 0.05 5.48 0.08 3.45 0.1 1.5 0.15L1.5 0.15Q1.5-0.95 1.6-2 1.7-3.05 1.9-3.75L1.9-3.75Q3.25-3.85 3.98-4.28 4.7-4.7 4.95-5.88 5.2-7.05 5.2-9.35L5.2-9.35 5.2-24.55Q5.2-26.8 4.95-27.9 4.7-29 3.98-29.43 3.25-29.85 1.85-30.05L1.85-30.05Q1.65-30.8 1.58-31.98 1.5-33.15 1.5-33.95ZM14.5-29.25L15.2-31.9 15.2-8.9Q15.2-6.7 15.68-5.58 16.15-4.45 16.95-4.08 17.75-3.7 18.65-3.7L18.65-3.7Q20.5-3.7 21.83-5.13 23.15-6.55 23.15-9.15L23.15-9.15Q23.15-10.95 22.73-12.15 22.3-13.35 21.45-14.08 20.6-14.8 19.35-15.13 18.1-15.45 16.45-15.45L16.45-15.45 13.2-15.45 13.2-19.2 17-19.2Q18.65-19.2 19.85-19.83 21.05-20.45 21.7-21.7 22.35-22.95 22.35-24.8L22.35-24.8Q22.35-26.45 21.73-27.63 21.1-28.8 20.03-29.43 18.95-30.05 17.55-30.05L17.55-30.05Q16.6-30.05 15.93-29.85 15.25-29.65 14.5-29.25L14.5-29.25ZM59.3 0.45L59.3 0.45Q58.8-0.75 58.3-2 57.8-3.25 57.3-4.58 56.8-5.9 56.3-7.2L56.3-7.2Q55.6-9.05 55.02-10.2 54.45-11.35 53.77-12.08 53.1-12.8 52.1-13.35L52.1-13.35 54.7-13.05Q53.3-13 52.32-12.98 51.35-12.95 49.95-13L49.95-13 50.45-17.1Q51.25-16.95 51.62-16.9 52-16.85 52.35-16.85L52.35-16.85Q53.8-16.85 55.1-17.57 56.4-18.3 57.25-19.78 58.1-21.25 58.1-23.45L58.1-23.45Q58.1-26.7 56.7-28.48 55.3-30.25 52.95-30.25L52.95-30.25Q52.3-30.25 51.7-30.13 51.1-30 50.45-29.75L50.45-29.75 50.85-31.8 50.85-9.85Q50.85-7.15 51.1-5.85 51.35-4.55 51.87-4.17 52.4-3.8 53.3-3.75L53.3-3.75Q53.5-3.25 53.57-2.1 53.65-0.95 53.65 0.15L53.65 0.15Q52.7 0.1 51.1 0.08 49.5 0.05 47.8 0.03 46.1 0 44.9 0L44.9 0Q42.9 0 40.9 0.03 38.9 0.05 37.15 0.15L37.15 0.15Q37.15-1.15 37.25-2.1 37.35-3.05 37.55-3.75L37.55-3.75Q38.9-3.85 39.62-4.28 40.35-4.7 40.6-5.88 40.85-7.05 40.85-9.35L40.85-9.35 40.85-24.65Q40.85-26.9 40.6-28 40.35-29.1 39.62-29.53 38.9-29.95 37.5-30.15L37.5-30.15Q37.3-30.9 37.22-32.2 37.15-33.5 37.15-34L37.15-34Q38.65-33.95 40.9-33.88 43.15-33.8 45.75-33.8L45.75-33.8Q47.2-33.8 50.05-33.93 52.9-34.05 56.1-34.05L56.1-34.05Q60.45-34.05 63.2-32.77 65.95-31.5 67.25-29.35 68.55-27.2 68.55-24.65L68.55-24.65Q68.55-21.3 67.35-18.98 66.15-16.65 64.1-15.4 62.05-14.15 59.5-13.9L59.5-13.9 60.7-14.55Q62.2-14.15 63.12-13.48 64.05-12.8 64.92-11.38 65.8-9.95 67.15-7.2L67.15-7.2Q67.8-5.95 68.32-5.25 68.85-4.55 69.47-4.28 70.1-4 71.05-3.9L71.05-3.9Q71.05-2.8 70.9-1.85 70.75-0.9 70.5 0L70.5 0Q66.55 0 63.67 0.1 60.8 0.2 59.3 0.45ZM76.75-9.35L76.75-24.55Q76.75-26.8 76.52-27.9 76.3-29 75.59-29.43 74.89-29.85 73.5-30.05L73.5-30.05Q73.3-30.8 73.17-31.9 73.05-33 73.05-33.95L73.05-33.95Q73.89-33.9 75.55-33.88 77.2-33.85 79-33.83 80.8-33.8 82-33.8L82-33.8Q83.2-33.8 84.8-33.83 86.4-33.85 87.92-33.88 89.45-33.9 90.45-33.95L90.45-33.95Q90.45-32.95 90.4-32 90.34-31.05 90-30.05L90-30.05Q88.65-29.9 87.95-29.48 87.25-29.05 87-27.93 86.75-26.8 86.75-24.55L86.75-24.55 86.75-9.35Q86.75-7.05 87-5.88 87.25-4.7 87.97-4.28 88.7-3.85 90.05-3.75L90.05-3.75Q90.25-3.1 90.34-1.98 90.45-0.85 90.45 0.15L90.45 0.15Q89.34 0.05 87.22 0.03 85.09 0 82.5 0L82.5 0Q79.89 0 77.34 0.03 74.8 0.05 73.05 0.15L73.05 0.15Q73.05-0.75 73.2-1.9 73.34-3.05 73.55-3.75L73.55-3.75Q74.89-3.85 75.59-4.28 76.3-4.7 76.52-5.88 76.75-7.05 76.75-9.35L76.75-9.35ZM111.34-34.1L111.34-34.1 122.44-9.75Q123.64-7.2 124.34-5.93 125.04-4.65 125.62-4.25 126.19-3.85 126.89-3.75L126.89-3.75Q127.09-3.1 127.19-2.08 127.29-1.05 127.29 0.15L127.29 0.15Q126.29 0.05 124.74 0.03 123.19 0 121.72 0 120.24 0 119.44 0L119.44 0Q118.84 0 117.67 0 116.49 0 115.14 0.03 113.79 0.05 112.57 0.08 111.34 0.1 110.64 0.15L110.64 0.15Q110.64-1.25 110.74-2.13 110.84-3 111.04-3.75L111.04-3.75Q112.69-4.15 113.02-5 113.34-5.85 112.59-7.55L112.59-7.55 108.94-15.8Q107.59-18.8 106.79-21.45 105.99-24.1 105.59-26.4L105.59-26.4 107.44-26.4Q106.84-24.05 106.02-21.4 105.19-18.75 103.99-15.8L103.99-15.8 100.79-7.6Q100.34-6.5 100.72-5.25 101.09-4 102.69-3.75L102.69-3.75Q102.89-2.95 102.99-2 103.09-1.05 103.09 0.15L103.09 0.15Q102.54 0.1 101.47 0.08 100.39 0.05 99.24 0.03 98.09 0 97.24 0L97.24 0Q95.99 0 94.59 0.03 93.19 0.05 92.44 0.15L92.44 0.15Q92.44-1 92.54-1.9 92.64-2.8 92.94-3.75L92.94-3.75Q93.74-3.9 94.34-4.35 94.94-4.8 95.54-5.85 96.14-6.9 96.94-8.8L96.94-8.8 107.54-33.8Q108.54-34.05 109.37-34.08 110.19-34.1 111.34-34.1ZM99.99-11.55L112.24-11.55 113.29-8.3Q109.94-8.3 106.39-8.18 102.84-8.05 99.24-7.65L99.24-7.65 99.99-11.55ZM155.44-13.85L153.79 0.45 132.29-28.65Q131.89-29.35 131.22-29.63 130.54-29.9 128.94-30.05L128.94-30.05Q128.74-30.9 128.64-31.88 128.54-32.85 128.54-33.95L128.54-33.95Q129.19-33.9 130.47-33.88 131.74-33.85 133.07-33.83 134.39-33.8 135.19-33.8L135.19-33.8Q136.44-33.8 138.14-33.83 139.84-33.85 140.84-33.95L140.84-33.95 155.44-13.85ZM128.54 0.15L128.54 0.15Q128.54-1.05 128.62-2 128.69-2.95 128.94-3.75L128.94-3.75Q130.49-3.95 131.37-4.53 132.24-5.1 132.62-6.58 132.99-8.05 132.99-10.9L132.99-10.9 132.99-30.75 136.74-30.35 136.74-10.9Q136.74-8.05 137.04-6.58 137.34-5.1 138.22-4.53 139.09-3.95 140.69-3.75L140.69-3.75Q140.94-2.95 140.99-1.9 141.04-0.85 141.04 0.15L141.04 0.15Q140.34 0.1 139.24 0.08 138.14 0.05 136.99 0.03 135.84 0 134.99 0L134.99 0Q134.14 0 132.84 0.03 131.54 0.05 130.34 0.08 129.14 0.1 128.54 0.15ZM153.79 0.45L153.79 0.45 154.59-9 154.59-22.9Q154.59-25.75 154.29-27.23 153.99-28.7 153.07-29.28 152.14-29.85 150.34-30.05L150.34-30.05Q150.14-30.9 150.07-32 149.99-33.1 149.99-33.95L149.99-33.95Q150.69-33.9 151.92-33.88 153.14-33.85 154.42-33.83 155.69-33.8 156.54-33.8L156.54-33.8Q157.84-33.8 159.39-33.85 160.94-33.9 161.84-33.95L161.84-33.95Q161.84-32.95 161.79-32 161.74-31.05 161.49-30.05L161.49-30.05Q160.19-29.9 159.52-29.33 158.84-28.75 158.59-27.3 158.34-25.85 158.34-22.9L158.34-22.9 158.34 0Q157.34 0.3 156.27 0.38 155.19 0.45 153.79 0.45Z" opacity="1" transform="matrix(1,0,0,1,0,0)" fill="#6b7280" class="wordmark-text-0" data-fill-palette-color="primary" id="text-0"></path></svg></g></svg></g></svg></g></svg></g></svg></g></svg></g></svg></g><path d="M193.163 91.267L193.163 31.221 8.405 31.221 8.405 215.979 193.163 215.979 193.163 155.933 188.413 155.933 188.413 211.229 13.155 211.229 13.155 35.971 188.413 35.971 188.413 91.267Z" fill="#6b7280" stroke="transparent" data-fill-palette-color="primary"></path></svg></g><defs></defs></svg><rect width="395.52" height="247.2" fill="none" stroke="none" visibility="hidden"></rect></g></svg></g></svg>